<svg width="20" height="20" viewBox="0 0 20 20" fill="none" xmlns="http://www.w3.org/2000/svg">
<path d="M14.1921 8.59616L14.4379 8.87934L14.1921 8.59617L6.09891 15.6225C6.0989 15.6225 6.0989 15.6225 6.0989 15.6225C5.93669 15.7633 5.66778 15.7566 5.5151 15.6119L5.51505 15.6119C5.38341 15.4871 5.38577 15.3033 5.52675 15.1808C5.52677 15.1808 5.52678 15.1808 5.52679 15.1808L13.62 8.15456L13.62 8.15454C14.4474 7.43616 14.4474 6.25969 13.62 5.5413L13.62 5.54128C12.8047 4.8335 11.4886 4.8335 10.6733 5.54128L10.9192 5.82446L10.6733 5.54128L2.63875 12.5166L2.63874 12.5166C0.936776 13.9943 0.93676 16.4017 2.63875 17.8793C4.32852 19.3464 7.06253 19.3464 8.75231 17.8793L16.9042 10.8021L16.6675 10.5295L16.9042 10.8021C19.4806 8.56528 19.4806 4.92689 16.9042 2.69004L16.6607 2.97049L16.9042 2.69003C14.3399 0.463784 10.188 0.463784 7.6237 2.69003L7.86954 2.9732L7.6237 2.69003L1.0553 8.39253C1.0553 8.39253 1.0553 8.39254 1.05529 8.39254C0.893156 8.53329 0.624209 8.52662 0.471463 8.38191C0.339781 8.25714 0.342212 8.07327 0.483165 7.95089L7.05156 2.2484C9.92871 -0.249466 14.5992 -0.249465 17.4763 2.2484C20.3412 4.73565 20.3412 8.75656 17.4763 11.2438L9.32442 18.321L9.55509 18.5867L9.32441 18.321C7.32182 20.0597 4.06925 20.0597 2.06661 18.321L1.83678 18.5857L2.06661 18.321C0.076196 16.593 0.076196 13.803 2.06661 12.0751L1.84303 11.8175L2.06661 12.0751L10.1012 5.09964C11.2293 4.12025 13.064 4.12025 14.1921 5.09964C15.308 6.06844 15.308 7.6274 14.1921 8.59616Z" stroke="black" stroke-width="0.75"/>
</svg>
