<svg viewBox="0 0 15 18" fill="none" xmlns="http://www.w3.org/2000/svg">
<path fill-rule="evenodd" clip-rule="evenodd" d="M7.82865 15.9162C7.71982 15.9512 7.60087 15.9427 7.49985 15.894C7.38923 15.8407 7.3161 15.7476 7.28977 15.6464L6.933 14.2709C6.80828 13.79 6.62655 13.326 6.39263 12.888C6.0294 12.208 5.47974 11.685 4.96985 11.2457L3.8908 10.3158C3.72356 10.1717 3.63555 9.95565 3.65461 9.73515L4.26373 2.69066C4.29451 2.33477 4.59183 2.0625 4.94726 2.0625H8.43375C10.786 2.0625 12.7678 3.6992 13.1479 5.89714L13.6771 8.95695C13.7499 9.37808 13.4261 9.76185 13.0011 9.76185H9.11527C8.38245 9.76185 7.8258 10.4193 7.94408 11.1415L8.4411 14.1749C8.5092 14.5904 8.48978 15.0156 8.38403 15.4232C8.3304 15.6299 8.1672 15.8075 7.9374 15.8813L7.82865 15.9162ZM7.01145 16.9075C7.3734 17.0819 7.79048 17.1101 8.17275 16.9873L8.2815 16.9523C8.86425 16.7651 9.3189 16.2996 9.47303 15.7056C9.61808 15.1464 9.6447 14.5631 9.55132 13.993L9.0543 10.9596C9.04792 10.9208 9.07785 10.8869 9.11527 10.8869H13.0011C14.1256 10.8869 14.9771 9.87263 14.7856 8.76525L14.2565 5.70544C13.7781 2.93922 11.3034 0.9375 8.43375 0.9375H4.94726C4.00702 0.9375 3.22389 1.65731 3.14292 2.59374L2.5338 9.63825C2.48362 10.2185 2.71516 10.7878 3.15641 11.168L4.23547 12.0979C4.72688 12.5213 5.14053 12.9317 5.40032 13.4181C5.59274 13.7783 5.7418 14.1592 5.84406 14.5535L6.20085 15.9288C6.31275 16.3603 6.61245 16.7152 7.01145 16.9075ZM0.725752 10.8863C1.0267 10.8993 1.28446 10.673 1.31041 10.3728L2.03911 1.94542C2.08592 1.40407 1.65951 0.9375 1.11503 0.9375C0.602168 0.9375 0.1875 1.35356 0.1875 1.86545V10.3244C0.1875 10.6256 0.4248 10.8734 0.725752 10.8863Z" fill="currentColor"/>
</svg>
