<svg viewBox="0 0 15 18" fill="none" xmlns="http://www.w3.org/2000/svg">
<path fill-rule="evenodd" clip-rule="evenodd" d="M7.82865 2.08381C7.71982 2.04886 7.60087 2.05733 7.49985 2.10603C7.38923 2.15935 7.3161 2.2524 7.28977 2.35366L6.933 3.72905C6.80828 4.21004 6.62655 4.67399 6.39263 5.11199C6.0294 5.792 5.47974 6.315 4.96985 6.75439L3.8908 7.6842C3.72356 7.82835 3.63555 8.04435 3.65461 8.26485L4.26373 15.3094C4.29451 15.6653 4.59183 15.9375 4.94726 15.9375H8.43375C10.786 15.9375 12.7678 14.3008 13.1479 12.1028L13.6771 9.04305C13.7499 8.62193 13.4261 8.23815 13.0011 8.23815H9.11527C8.38245 8.23815 7.8258 7.5807 7.94408 6.85853L8.4411 3.82511C8.5092 3.4096 8.48978 2.98442 8.38403 2.57688C8.3304 2.37007 8.1672 2.19257 7.9374 2.11874L7.82865 2.08381ZM7.01145 1.09256C7.3734 0.918151 7.79048 0.889906 8.17275 1.01272L8.2815 1.04765C8.86425 1.23486 9.3189 1.70039 9.47303 2.2944C9.61808 2.85358 9.6447 3.43692 9.55132 4.00701L9.0543 7.04043C9.04792 7.07925 9.07785 7.11315 9.11527 7.11315H13.0011C14.1256 7.11315 14.9771 8.12738 14.7856 9.23475L14.2565 12.2946C13.7781 15.0608 11.3034 17.0625 8.43375 17.0625H4.94726C4.00702 17.0625 3.22389 16.3427 3.14292 15.4063L2.5338 8.36175C2.48362 7.78148 2.71516 7.21223 3.15641 6.832L4.23547 5.90216C4.72688 5.47869 5.14053 5.06825 5.40032 4.58193C5.59274 4.22169 5.7418 3.8408 5.84406 3.44657L6.20085 2.07118C6.31275 1.6397 6.61245 1.28482 7.01145 1.09256ZM0.725752 7.11368C1.0267 7.10069 1.28446 7.32709 1.31041 7.6272L2.03911 16.0546C2.08592 16.5959 1.65951 17.0625 1.11503 17.0625C0.602168 17.0625 0.1875 16.6465 0.1875 16.1345V7.67565C0.1875 7.37442 0.4248 7.12666 0.725752 7.11368Z" fill="currentColor"/>
</svg>
